
<svg width="389px" height="105px" viewBox="0 0 389 105" version="1.1" xmlns="http://www.w3.org/2000/svg" xmlns:xlink="http://www.w3.org/1999/xlink">
    <g id="Page-1" stroke="none" stroke-width="1" fill="none" fill-rule="evenodd">
        <path d="M18.0615385,62.5923077 L17.0668723,62.5873627 C15.1849212,62.5675826 13.9472557,62.4884622 13.3538462,62.35 L11.257451,61.8545671 C11.0584124,61.8055286 10.9026439,61.7651442 10.7901442,61.7334135 L10.6538462,61.6923077 C10.5153839,61.6461536 10.3076937,61.6230769 10.0307692,61.6230769 C9.47692031,61.6230769 8.96923308,61.7615385 8.50769231,62.0384615 C6.89229962,63.3769298 4.76924392,64.0461538 2.13846154,64.0461538 C0.753839231,64.0461538 0.0615384615,63.7346185 0.0615384615,63.1115385 C0.0615384615,62.5438433 1.39291546,59.9359883 4.05570585,55.2879035 L9.94422947,45.0942331 L9.94422947,45.0942331 L16.368477,33.9294039 C19.7953233,27.9291631 22.032734,23.7527322 23.0807692,21.4 C24.2115441,18.8615258 24.7769231,16.66924 24.7769231,14.8230769 L24.7769231,14.2692308 C24.7769231,12.9307625 28.6307307,12.2615385 36.3384615,12.2615385 C47.7846726,12.2615385 53.5076923,16.1614995 53.5076923,23.9615385 C53.5076923,29.5923358 51.5923268,35.7999661 47.7615385,42.5846154 C45.7769132,46.1384793 43.4461672,49.3922929 40.7692308,52.3461538 C38.0922943,55.3000148 34.7577123,57.7461442 30.7653846,59.6846154 C26.773057,61.6230866 22.5384839,62.5923077 18.0615385,62.5923077 Z M40.8384615,38.9153846 C42.5461624,35.5922911 43.8499955,32.488476 44.75,29.6038462 C45.6500045,26.7192163 46.1,24.2961637 46.1,22.3346154 C46.1,20.3730671 45.534621,18.8846205 44.4038462,17.8692308 C43.2730713,16.8538411 41.3692442,16.3461538 38.6923077,16.3461538 C36.8461446,16.3461538 35.3692363,16.9923012 34.2615385,18.2846154 C31.5318545,21.7075524 27.6633103,27.8454944 22.6558016,36.6986082 L21.6615385,38.4653846 C16.1692033,48.273126 13.4230769,54.007684 13.4230769,55.6692308 C13.4230769,57.5153938 15.3845958,58.4384615 19.3076923,58.4384615 C22.0769369,58.4384615 24.8692167,57.4692405 27.6846154,55.5307692 C30.5000141,53.592298 32.9692202,51.157707 35.0923077,48.2269231 C37.2153952,45.2961392 39.1307607,42.1923241 40.8384615,38.9153846 Z M63.8230769,54.7692308 C63.8230769,54.4461522 63.7076935,54.2846154 63.4769231,54.2846154 L63.3384615,54.2846154 L62.3,54.7692308 L61.5615355,55.4771664 C58.8961427,58.0032966 56.6961625,59.7634566 54.9615385,60.7576923 C53.0692213,61.8423131 51.1077025,62.3846154 49.0769231,62.3846154 C48.1538415,62.3846154 47.3230806,62.1076951 46.5846154,61.5538462 C45.8461502,60.9999972 45.4769231,59.9384694 45.4769231,58.3692308 C45.4769231,56.7999922 46.2846073,54.0307891 47.9,50.0615385 C49.5153927,46.0922878 51.5230649,42.296172 53.9230769,38.6730769 C56.2430885,35.1707517 58.282736,33.1456036 60.0420761,32.5975771 L60.2230769,32.5461538 C60.8230799,32.3615375 61.6307642,32.2692308 62.6461538,32.2692308 C63.6615435,32.2692308 64.1692308,32.5461511 64.1692308,33.1 C64.1692308,33.2846163 63.3384698,34.5653727 61.6769231,36.9423077 C60.0153763,39.3192427 58.3653928,42.030754 56.7269231,45.0769231 C55.0884533,48.1230922 54.2692308,50.4076847 54.2692308,51.9307692 C54.2692308,53.4538538 54.7999947,54.2153846 55.8615385,54.2153846 C57.8461638,54.2153846 60.1307563,52.9230898 62.7153846,50.3384615 C65.3000129,47.7538332 68.6922867,43.6692587 72.8923077,38.0846154 C74.0461596,36.4230686 75.892295,35.5923077 78.4307692,35.5923077 C79.8153915,35.5923077 80.5076923,35.869228 80.5076923,36.4230769 C80.5076923,36.5615392 80.4384622,36.7461527 80.3,36.9769231 L79.5478976,38.14096 C72.7512914,48.7042552 68.640493,56.3238633 67.2153846,61 C67.0307683,61.5538489 66.8000014,61.8307692 66.5230769,61.8307692 L66.3153846,61.8307692 C64.4692215,61.8307692 63.5461538,60.3538609 63.5461538,57.4 L63.8230769,54.7692308 Z M78.8461538,61.9 C77.7846101,61.3923052 76.9192341,60.4923142 76.25,59.2 C75.5807659,57.9076858 75.2461538,56.3153941 75.2461538,54.4230769 C75.2461538,51.469216 76.2038366,48.3769392 78.1192308,45.1461538 C80.034625,41.9153685 82.734598,39.1461654 86.2192308,36.8384615 C89.7038636,34.5307577 93.384596,33.3769231 97.2615385,33.3769231 C99.0615475,33.3769231 100.561532,33.8615336 101.761538,34.8307692 C102.961544,35.8000048 103.561538,36.7576876 103.561538,37.7038462 C103.561538,38.6500047 103.423078,39.3999972 103.146154,39.9538462 C102.869229,40.5076951 102.730769,40.8769231 102.730769,41.0615385 C102.730769,41.6153874 103.169226,41.8923077 104.046154,41.8923077 C104.923081,41.8923077 105.592305,41.7769242 106.053846,41.5461538 L106.453847,41.3538456 C106.679488,41.2512815 106.823077,41.2 106.884615,41.2 C107.253848,41.2 107.438462,41.6730722 107.438462,42.6192308 C107.438462,43.5653893 106.976928,44.6730706 106.053846,45.9423077 C105.130765,47.2115448 104.000007,48.1461508 102.661538,48.7461538 L102.017909,50.059915 C101.979688,50.1388815 101.940385,50.2201919 101.9,50.3038462 C101.576921,50.9730803 100.815391,52.1269149 99.6153846,53.7653846 C98.4153786,55.4038543 97.1346222,56.857686 95.7730769,58.1269231 C94.4115317,59.3961602 92.6115497,60.5499948 90.3730769,61.5884615 C88.1346042,62.6269283 86.0923169,63.1461538 84.2461538,63.1461538 C82.3999908,63.1461538 80.6000088,62.7307734 78.8461538,61.9 Z M94.2846154,49.9923077 C94.2846154,49.6230751 94.0769252,49.4384615 93.6615385,49.4384615 C93.0615355,49.4384615 92.380773,49.5769217 91.6192308,49.8538462 L90.9692292,50.084616 C90.6102549,50.2076929 90.4000003,50.2692308 90.3384615,50.2692308 C90.0615371,50.2692308 89.9230769,50.0615405 89.9230769,49.6461538 C89.9230769,47.8461448 90.5692243,46.3000065 91.8615385,45.0076923 C92.3128228,44.5153822 92.9464354,44.0868956 93.762392,43.7222226 L94.0769231,43.5884615 C95.0461587,43.1961519 95.7961512,42.734618 96.3269231,42.2038462 C96.857695,41.6730743 97.1230769,40.7615449 97.1230769,39.4692308 C97.1230769,37.8999922 96.292316,37.1153846 94.6307692,37.1153846 C91.6769083,37.1153846 88.8615518,39.2038253 86.1846154,43.3807692 C83.5076789,47.5577132 82.1692308,51.284599 82.1692308,54.5615385 C82.1692308,55.6692363 82.5499962,56.6153846 83.3115385,57.4 C84.0730807,58.1846193 84.9846101,58.5769231 86.0461538,58.5769231 C88.4461658,58.5769231 90.419223,57.573087 91.9653846,55.5653846 C93.5115462,53.5576823 94.2846154,51.7000085 94.2846154,49.9923077 Z M140.046154,64.4615385 C139.261535,64.4615385 138.661541,63.9884663 138.246154,63.0423077 C137.830767,62.0961491 137.623077,61.3000032 137.623077,60.6538462 C137.623077,58.3270053 139.314375,54.3924206 142.697019,48.8499833 L143.230769,47.9846154 C144.476929,45.953836 145.1,44.5923112 145.1,43.9 C145.1,43.2076888 144.776926,42.8615385 144.130769,42.8615385 C142.423068,42.8615385 140.184629,44.1653716 137.415385,46.7730769 C134.859159,49.1801896 132.656902,51.5971003 130.808559,54.0238711 L127.446154,58.5076923 C126.661535,59.6153902 125.450008,60.1692308 123.811538,60.1692308 C122.173069,60.1692308 121.353846,59.8692338 121.353846,59.2692308 C121.353846,58.4057029 122.333309,56.3405782 124.292262,53.0738004 L125.14431,51.6630738 C127.094266,48.3892156 128.069231,46.170775 128.069231,45.0076923 C128.069231,44.6384597 127.965386,44.350001 127.757692,44.1423077 C127.549999,43.9346143 127.33077,43.8307692 127.1,43.8307692 C125.62307,43.8307692 123.984624,44.4192249 122.184615,45.5961538 C120.384606,46.7730828 118.700008,48.2153761 117.130769,49.9230769 C114.038446,53.2923245 111.546163,56.4307547 109.653846,59.3384615 L108.546154,61.0692308 C107.576918,62.4538531 105.82309,63.1461538 103.284615,63.1461538 C102.130763,63.1461538 101.553846,62.8461568 101.553846,62.2461538 L101.562625,62.1016829 C101.71772,60.708073 103.927821,56.2020406 108.192987,48.5834689 L109.178886,46.8331943 C113.653442,38.9505682 116.580965,34.7421079 117.961538,34.2076923 C118.746158,33.7461515 119.819224,33.5153846 121.180769,33.5153846 C122.542315,33.5153846 123.223077,33.7346132 123.223077,34.1730769 C123.223077,34.5609487 122.600057,35.7072738 121.354002,37.6120815 L120.834615,38.3961538 C119.2423,40.7730888 118.446154,42.3538422 118.446154,43.1384615 C118.584616,43.4615401 118.815383,43.6230769 119.138462,43.6230769 C119.46154,43.6230769 119.80769,43.4615401 120.176923,43.1384615 L121.976923,41.5807692 L121.976923,41.5807692 C122.807696,40.865381 124.342297,39.9192367 126.580769,38.7423077 C128.819242,37.5653787 130.849991,36.9769231 132.673077,36.9769231 C134.496163,36.9769231 135.407692,37.7615306 135.407692,39.3307692 C135.407692,40.4384671 135.176925,41.4538415 134.715385,42.3769231 L134.53171,42.7499229 C134.19262,43.4507096 134.023077,43.880219 134.023077,44.0384615 C134.023077,44.4076942 134.219229,44.5923077 134.611538,44.5923077 C135.003848,44.5923077 135.361537,44.3846175 135.684615,43.9692308 C136.307695,43.3461507 137.108342,42.5922343 138.086576,41.7074627 L138.419231,41.4076923 C139.550006,40.3923026 141.442294,39.0423161 144.096154,37.3576923 C146.750013,35.6730685 148.907684,34.8307692 150.569231,34.8307692 C152.830781,34.8307692 153.961538,35.823067 153.961538,37.8076923 C153.961538,39.4692391 153.373083,41.3961429 152.196154,43.5884615 L149.807692,48.0192308 C149.52348,48.540286 149.028609,49.3800308 148.323069,50.5384789 L144.546154,56.6730769 L144.546154,56.6730769 L144.337755,57.0234702 C143.972762,57.6474891 143.519468,58.4716597 142.977866,59.4959946 L141.42523,62.4441546 C141.207385,62.8521535 141.024616,63.1899987 140.876923,63.4576923 C140.50769,64.1269264 140.23077,64.4615385 140.046154,64.4615385 Z M148.423077,63.6307692 C148.423077,61.7846062 149.184608,58.911558 150.707692,55.0115385 C152.230777,51.111519 153.938452,47.3154031 155.830769,43.6230769 L156.31779,42.6822082 C158.154653,39.167136 160.553831,34.9346401 163.515385,29.9846154 C168.315409,21.9999601 173.253821,14.0846546 178.330769,6.23846154 C179.115389,4.99230146 180.338453,3.976927 182,3.19230769 C183.661547,2.40768838 185.161532,2.01538462 186.5,2.01538462 C187.838468,2.01538462 188.530769,2.38461169 188.576923,3.12307692 C188.576923,3.35384731 188.438463,3.60769092 188.161538,3.88461538 C186.5923,5.31539177 183.961557,8.62689712 180.269231,13.8192308 C176.576905,19.0115644 172.665405,24.9538127 168.534615,31.6461538 C164.403826,38.338495 160.780785,45.3999628 157.665385,52.8307692 C154.549984,60.2615756 152.992308,66.3307457 152.992308,71.0384615 C152.992308,71.7307727 152.784617,72.0769231 152.369231,72.0769231 C151.584611,72.0769231 150.915387,71.7884644 150.361538,71.2115385 C149.80769,70.6346125 149.415386,69.9076967 149.184615,69.0307692 C148.676921,67.2769143 148.423077,65.4769323 148.423077,63.6307692 Z M144.753846,104.407692 C142.815375,104.407692 141.846154,102.792324 141.846154,99.5615385 C141.846154,96.3307531 142.792298,92.7423274 144.684615,88.7961538 C146.576933,84.8499803 148.849987,81.2269396 151.503846,77.9269231 C154.157706,74.6269066 156.9846,71.8230885 159.984615,69.5153846 C162.98463,67.2076808 165.49999,66.0538462 167.530769,66.0538462 C168.22308,66.0538462 168.569231,66.215383 168.569231,66.5384615 C168.569231,66.8292322 168.344925,67.1013069 167.896308,67.354692 L167.738462,67.4384615 C165.984607,68.3615431 163.757706,70.3346003 161.057692,73.3576923 C158.357679,76.3807843 155.911549,79.8422882 153.719231,83.7423077 C151.526912,87.6423272 150.430769,90.9307558 150.430769,93.6076923 C150.430769,94.7615442 150.846154,95.3384615 151.676923,95.3384615 C153.292316,95.3384615 155.738445,93.0769457 159.015385,88.5538462 C164.162263,81.5272376 169.417564,72.6345918 174.781434,61.8756563 L175.758156,59.9047653 C177.104007,57.1549102 177.776923,55.4892337 177.776923,54.9076923 C177.776923,54.2615352 177.59231,53.9384615 177.223077,53.9384615 C176.761536,53.9384615 176.300002,54.1692285 175.838462,54.6307692 C170.669205,59.0615606 166.65386,61.2769231 163.792308,61.2769231 C161.715374,61.2769231 160.676923,60.1577035 160.676923,57.9192308 C160.676923,55.680758 161.911526,52.2192542 164.380769,47.5346154 C166.850012,42.8499766 169.353833,39.2384742 171.892308,36.7 C172.446157,36.1461511 173.207687,35.6961556 174.176923,35.35 C175.146159,35.0038444 176.149995,34.8307692 177.188462,34.8307692 C178.226928,34.8307692 178.746154,35.0615362 178.746154,35.5230769 C178.746154,35.7076932 178.0077,36.7692211 176.530769,38.7076923 C172.053824,44.6615682 169.815385,48.9076796 169.815385,51.4461538 C169.815385,52.5538517 170.299995,53.1076923 171.269231,53.1076923 C172.976932,53.1076923 175.619213,51.4461705 179.196154,48.1230769 C182.773095,44.7999834 185.899987,40.9000224 188.576923,36.4230769 C189.407696,34.7615302 191.253832,33.9307692 194.115385,33.9307692 C195.500007,33.9307692 196.192308,34.2076895 196.192308,34.7615385 C196.192308,34.9000007 196.123078,35.0846142 195.984615,35.3153846 C191.827452,42.1725618 188.008608,48.8008191 184.527986,55.2003278 L182.679228,58.6188222 C179.471311,64.5350803 176.856462,69.171075 174.834615,72.5269231 C172.596143,76.2423263 170.10386,80.1076722 167.357692,84.1230769 C164.611525,88.1384816 161.980782,91.5884471 159.465385,94.4730769 C156.949987,97.3577067 154.388475,99.734606 151.780769,101.603846 C149.173064,103.473086 146.83078,104.407692 144.753846,104.407692 Z M267.015385,21.4692308 C267.015385,24.5153998 266.346161,27.2846029 265.007692,29.7769231 C263.669224,32.2692432 262.157701,34.2884538 260.473077,35.8346154 C258.788453,37.380777 256.353862,38.7076868 253.169231,39.8153846 C250.152212,40.8647826 246.63816,41.4170898 242.626979,41.4723205 L241.953846,41.4769231 C237.661517,41.4769231 234.684624,41.9615336 233.023077,42.9307692 C231.36153,43.9000048 229.746162,45.7692169 228.176923,48.5384615 C227.023071,50.4769328 225.857698,52.7153719 224.680769,55.2538462 L224.054708,56.6215114 C223.233618,58.441608 222.692309,59.7626333 222.430769,60.5846154 C222.107691,61.6000051 221.230776,62.4192277 219.8,63.0423077 C218.369224,63.6653877 217.030775,63.9999998 215.784615,64.0461538 L213.846154,64.1846154 C212.461532,64.1846154 211.769231,63.8846184 211.769231,63.2846154 L211.769231,63.0769231 C211.769231,62.6030746 213.166345,59.9380751 215.960613,55.0818509 L220.48013,47.2634589 L220.48013,47.2634589 L227.803158,34.5453578 C231.384433,28.2886997 233.712846,23.9531078 234.788462,21.5384615 C235.919236,18.9999873 236.484615,16.8538549 236.484615,15.1 L236.484615,14.4076923 C236.484615,13.6692271 238.065369,13.1038481 241.226923,12.7115385 C244.388477,12.3192288 247.792289,12.1230769 251.438462,12.1230769 C257.253875,12.1230769 261.303835,12.9192228 263.588462,14.5115385 C265.873088,16.1038541 267.015385,18.4230617 267.015385,21.4692308 Z M246.038462,18.2153846 L245.802733,18.4942158 C244.578318,19.9818217 242.667336,22.8711805 240.069741,27.1623629 L239.192767,28.620782 C236.695013,32.8030062 235.446154,35.161442 235.446154,35.6961538 C235.446154,36.2730798 235.769228,36.6538452 236.415385,36.8384615 C237.061542,37.0230778 238.619218,37.1153846 241.088462,37.1153846 C243.557705,37.1153846 245.957681,36.6769275 248.288462,35.8 C250.619242,34.9230725 252.453839,33.8615447 253.792308,32.6153846 C255.130776,31.3692245 256.238457,29.984623 257.115385,28.4615385 C258.592315,25.8769102 259.330769,23.7769312 259.330769,22.1615385 C259.330769,20.5461458 259.111541,19.3346194 258.673077,18.5269231 C258.234613,17.7192267 257.600004,17.1538478 256.769231,16.8307692 C255.384608,16.3230744 253.573088,16.0692308 251.334615,16.0692308 C249.096143,16.0692308 247.330776,16.7846082 246.038462,18.2153846 Z M283.976923,35.3846154 C285.961548,35.3846154 286.953846,36.53845 286.953846,38.8461538 C286.953846,41.1538577 286.146162,44.0615209 284.530769,47.5692308 C282.176911,52.507717 279.500015,56.7769051 276.5,60.3769231 C275.069224,62.0846239 273.269242,62.9384615 271.1,62.9384615 C270.407689,62.9384615 270.061538,62.753848 270.061538,62.3846154 L270.338462,61.6230769 C272.507703,58.4384456 274.434607,55.150017 276.119231,51.7576923 L276.493038,50.9914397 C277.928455,47.992795 278.646154,45.7905396 278.646154,44.3846154 C278.646154,44.1076909 278.565385,43.876924 278.403846,43.6923077 C278.242307,43.5076923 277.976925,43.3923079 277.607692,43.3461538 C275.715375,43.3461538 273.165401,44.8922922 269.957692,47.9846154 C266.749984,51.0769385 263.980781,54.192292 261.65,57.3307692 L260.876374,58.3789128 C258.984129,60.9597459 257.742015,62.7911189 257.15,63.8730769 C256.480766,65.09616 255.800003,65.8346141 255.107692,66.0884615 C254.415381,66.342309 253.284623,66.4692308 251.715385,66.4692308 C250.146146,66.4692308 249.361538,66.1923105 249.361538,65.6384615 C249.361538,65.4846146 249.513781,65.1544893 249.818268,64.6480781 L250.088349,64.2107498 C250.614901,63.3357234 252.253385,60.2578082 255.003846,54.9769231 C257.888476,49.4384338 260.934599,43.7961826 264.142308,38.05 C267.350016,32.3038174 270.857673,26.4307992 274.665385,20.4307692 C278.473096,14.4307392 282.28075,9.52694212 286.088462,5.71923077 C289.896173,1.91151942 293.207678,0.00769230769 296.023077,0.00769230769 C298.192319,0.00769230769 299.276923,1.27691038 299.276923,3.81538462 C299.276923,8.70771677 297.050022,13.9461259 292.596154,19.5307692 C288.142285,25.1154125 284.069249,28.7615299 280.376923,30.4692308 C279.54615,30.8384634 278.680774,31.0230769 277.780769,31.0230769 C276.880765,31.0230769 276.430769,30.8153867 276.430769,30.4 L276.846154,29.7076923 C281.369253,26.5692151 284.957679,22.9461744 287.611538,18.8384615 L288.093587,18.0825989 C290.426078,14.3749529 291.592308,11.7423155 291.592308,10.1846154 C291.592308,9.63076646 291.523078,9.25000104 291.384615,9.04230769 C291.246153,8.83461435 290.923079,8.73076923 290.415385,8.73076923 C288.753838,8.73076923 286.042327,11.4307422 282.280769,16.8307692 C278.519212,22.2307962 275.138477,27.7922791 272.138462,33.5153846 L271.532456,34.6805559 C268.936447,39.7138152 267.638462,42.8100121 267.638462,43.9692308 C267.638462,44.4769256 267.811537,44.7307692 268.157692,44.7307692 C268.503848,44.7307692 268.97692,44.5000023 269.576923,44.0384615 L270.501846,43.1855385 C271.011383,42.7203089 271.591535,42.196926 272.242308,41.6153846 C273.269843,40.6971614 274.960132,39.4993461 277.31322,38.0219061 L277.711538,37.7730769 C280.27309,36.1807613 282.361538,35.3846154 283.976923,35.3846154 Z M289.376923,61.9 C288.315379,61.3923052 287.450003,60.4923142 286.780769,59.2 C286.111535,57.9076858 285.776923,56.3153941 285.776923,54.4230769 C285.776923,51.469216 286.734606,48.3769392 288.65,45.1461538 C290.565394,41.9153685 293.265367,39.1461654 296.75,36.8384615 C300.234633,34.5307577 303.915365,33.3769231 307.792308,33.3769231 C309.592317,33.3769231 311.092302,33.8615336 312.292308,34.8307692 C313.492314,35.8000048 314.092308,36.7576876 314.092308,37.7038462 C314.092308,38.6500047 313.953848,39.3999972 313.676923,39.9538462 C313.399999,40.5076951 313.261538,40.8769231 313.261538,41.0615385 C313.261538,41.6153874 313.699996,41.8923077 314.576923,41.8923077 C315.453851,41.8923077 316.123075,41.7769242 316.584615,41.5461538 L316.864958,41.4094012 C317.160115,41.2697999 317.343589,41.2 317.415385,41.2 C317.784617,41.2 317.969231,41.6730722 317.969231,42.6192308 C317.969231,43.5653893 317.507697,44.6730706 316.584615,45.9423077 C315.661534,47.2115448 314.530776,48.1461508 313.192308,48.7461538 L312.430769,50.3038462 C312.107691,50.9730803 311.34616,52.1269149 310.146154,53.7653846 C308.946148,55.4038543 307.665391,56.857686 306.303846,58.1269231 C304.942301,59.3961602 303.142319,60.5499948 300.903846,61.5884615 C298.665373,62.6269283 296.623086,63.1461538 294.776923,63.1461538 C292.93076,63.1461538 291.130778,62.7307734 289.376923,61.9 Z M304.815385,49.9923077 C304.815385,49.6230751 304.607694,49.4384615 304.192308,49.4384615 C303.592305,49.4384615 302.911542,49.5769217 302.15,49.8538462 L301.499998,50.084616 C301.141024,50.2076929 300.93077,50.2692308 300.869231,50.2692308 C300.592306,50.2692308 300.453846,50.0615405 300.453846,49.6461538 C300.453846,47.8461448 301.099994,46.3000065 302.392308,45.0076923 C302.843592,44.5153822 303.477205,44.0868956 304.293161,43.7222226 L304.607692,43.5884615 C305.576928,43.1961519 306.32692,42.734618 306.857692,42.2038462 C307.388464,41.6730743 307.653846,40.7615449 307.653846,39.4692308 C307.653846,37.8999922 306.823085,37.1153846 305.161538,37.1153846 C302.207678,37.1153846 299.392321,39.2038253 296.715385,43.3807692 C294.038448,47.5577132 292.7,51.284599 292.7,54.5615385 C292.7,55.6692363 293.080765,56.6153846 293.842308,57.4 C294.60385,58.1846193 295.515379,58.5769231 296.576923,58.5769231 C298.976935,58.5769231 300.949992,57.573087 302.496154,55.5653846 C304.042315,53.5576823 304.815385,51.7000085 304.815385,49.9923077 Z M350.646154,16.7615385 L354.038462,16.6230769 C354.500002,16.6230769 354.730769,16.7153837 354.730769,16.9 C354.730769,17.0846163 354.684616,17.3153832 354.592308,17.5923077 C354.5,17.8692322 354.303848,18.2153825 354.003846,18.6307692 C353.703845,19.0461559 353.346156,19.415383 352.930769,19.7384615 C351.823071,20.615389 350.450008,21.0538462 348.811538,21.0538462 L348.136183,21.0566719 C346.839163,21.0679748 345.864289,21.1131864 345.211538,21.1923077 C344.449996,21.2846158 343.79231,21.5153828 343.238462,21.8846154 L342.89658,22.1170947 C342.529628,22.3723655 342.27436,22.5717942 342.130769,22.7153846 C341.97972,22.8664343 341.735983,23.2028586 341.399556,23.724665 L340.480307,25.1800005 C340.362154,25.3646153 340.266154,25.5123071 340.192308,25.6230769 L339.885223,26.0563981 C337.577869,29.3448837 334.051754,35.0709097 329.30679,43.2346159 L328.319231,44.9384615 C322.849973,54.4000473 319.446161,61.7153588 318.107692,66.8846154 C317.96923,67.3461562 317.542311,67.5769231 316.826923,67.5769231 C316.111535,67.5769231 315.130775,66.9769291 313.884615,65.7769231 C312.638455,64.5769171 312.015385,63.3538524 312.015385,62.1076923 C312.015385,60.8615322 313.896135,57.1461848 317.657692,50.9615385 C320.792323,45.8076665 323.934928,40.7259737 327.085572,35.7163544 L330.098022,30.9378231 C333.135252,26.0787727 334.653846,23.3495222 334.653846,22.75 C334.653846,22.0807659 334.376926,21.6653854 333.823077,21.5038462 C333.311832,21.354733 332.44666,21.2744423 331.227539,21.2629722 L328.630769,21.2615385 C328.030766,21.2615385 327.730769,20.9846182 327.730769,20.4307692 C327.730769,19.8769203 327.996151,19.2884647 328.526923,18.6653846 C329.057695,18.0423046 329.865379,17.5000023 330.95,17.0384615 C332.034621,16.5769208 333.142302,16.1153869 334.273077,15.6538462 C335.403852,15.1923054 336.88076,14.1538542 338.703846,12.5384615 C340.526932,10.9230688 342.361529,8.84616654 344.207692,6.30769231 C345.361544,4.73845369 347.34614,3.95384615 350.161538,3.95384615 C351.130774,3.95384615 351.615385,4.25384315 351.615385,4.85384615 C351.615385,5.17543585 350.827631,6.49484215 349.252104,8.81209845 L348.085107,10.5124146 C346.284771,13.1617979 345.384615,14.8409779 345.384615,15.55 C345.384615,16.3115423 346.076916,16.6923077 347.461538,16.6923077 L347.854768,16.7172309 C348.460305,16.7467694 349.390763,16.7615385 350.646154,16.7615385 Z M332.092308,61.9 C331.030764,61.3923052 330.165388,60.4923142 329.496154,59.2 C328.82692,57.9076858 328.492308,56.3153941 328.492308,54.4230769 C328.492308,51.469216 329.44999,48.3769392 331.365385,45.1461538 C333.280779,41.9153685 335.980752,39.1461654 339.465385,36.8384615 C342.950017,34.5307577 346.63075,33.3769231 350.507692,33.3769231 C352.307701,33.3769231 353.807686,33.8615336 355.007692,34.8307692 C356.207698,35.8000048 356.807692,36.7576876 356.807692,37.7038462 C356.807692,38.6500047 356.669232,39.3999972 356.392308,39.9538462 C356.115383,40.5076951 355.976923,40.8769231 355.976923,41.0615385 C355.976923,41.6153874 356.41538,41.8923077 357.292308,41.8923077 C358.169235,41.8923077 358.838459,41.7769242 359.3,41.5461538 L359.580343,41.4094012 C359.8755,41.2697999 360.058974,41.2 360.130769,41.2 C360.500002,41.2 360.684615,41.6730722 360.684615,42.6192308 C360.684615,43.5653893 360.223082,44.6730706 359.3,45.9423077 C358.376918,47.2115448 357.246161,48.1461508 355.907692,48.7461538 L355.146154,50.3038462 L355.146154,50.3038462 C354.823075,50.9730803 354.061544,52.1269149 352.861538,53.7653846 C351.661532,55.4038543 350.380776,56.857686 349.019231,58.1269231 C347.657686,59.3961602 345.857704,60.5499948 343.619231,61.5884615 C341.380758,62.6269283 339.338471,63.1461538 337.492308,63.1461538 C335.646145,63.1461538 333.846163,62.7307734 332.092308,61.9 Z M347.530769,49.9923077 C347.530769,49.6230751 347.323079,49.4384615 346.907692,49.4384615 C346.307689,49.4384615 345.626927,49.5769217 344.865385,49.8538462 L344.215383,50.084616 C343.856409,50.2076929 343.646154,50.2692308 343.584615,50.2692308 C343.307691,50.2692308 343.169231,50.0615405 343.169231,49.6461538 C343.169231,47.8461448 343.815378,46.3000065 345.107692,45.0076923 C345.558977,44.5153822 346.192589,44.0868956 347.008546,43.7222226 L347.323077,43.5884615 C348.292313,43.1961519 349.042305,42.734618 349.573077,42.2038462 C350.103849,41.6730743 350.369231,40.7615449 350.369231,39.4692308 C350.369231,37.8999922 349.53847,37.1153846 347.876923,37.1153846 C344.923062,37.1153846 342.107706,39.2038253 339.430769,43.3807692 C336.753833,47.5577132 335.415385,51.284599 335.415385,54.5615385 C335.415385,55.6692363 335.79615,56.6153846 336.557692,57.4 C337.319235,58.1846193 338.230764,58.5769231 339.292308,58.5769231 C341.69232,58.5769231 343.665377,57.573087 345.211538,55.5653846 C346.7577,53.5576823 347.530769,51.7000085 347.530769,49.9923077 Z M351.961538,64.2538462 C351.961538,63.8846135 352.215382,63.6538466 352.723077,63.5615385 C355.953862,63.5615385 359.403828,62.5230873 363.073077,60.4461538 C366.742326,58.3692204 368.576923,56.2000113 368.576923,53.9384615 C368.576923,52.3461459 367.559626,50.8068374 365.525001,49.3204936 L365.253846,49.1269231 C363.03845,47.5807615 361.930769,45.9538547 361.930769,44.2461538 C361.930769,41.7076796 363.546138,39.5038555 366.776923,37.6346154 C370.007708,35.7653753 373.676903,34.8307692 377.784615,34.8307692 L378.380694,34.8338846 C378.791001,34.8387307 379.076922,34.8492307 379.238462,34.8653846 C379.469232,34.8884617 379.688461,34.7500015 379.896154,34.45 C380.103847,34.1499985 380.346152,33.8153865 380.623077,33.4461538 C380.900001,33.0769212 381.407689,32.7423092 382.146154,32.4423077 C382.884619,32.1423062 383.761533,31.9923077 384.776923,31.9923077 C387.130781,31.9923077 388.307692,32.3384581 388.307692,33.0307692 C388.307692,33.1692315 388.284616,33.2846149 388.238462,33.3769231 L388.041826,33.5581735 C387.276761,34.2950328 386.026932,35.8269114 384.292308,38.1538462 C382.399991,40.6923204 381.015389,43.0692197 380.138462,45.2846154 C379.953845,45.7000021 379.550003,45.9076923 378.926923,45.9076923 C378.303843,45.9076923 377.692311,45.5500036 377.092308,44.8346154 C376.492305,44.1192272 376.192308,43.4269264 376.192308,42.7576923 C376.192308,42.0884582 376.307691,41.3730807 376.538462,40.6115385 L376.644231,40.2567295 C376.804488,39.7086514 376.884615,39.3769237 376.884615,39.2615385 C376.884615,38.6615355 376.515388,38.3615385 375.776923,38.3615385 C374.346147,38.3615385 372.8577,38.7884573 371.311538,39.6423077 C369.765377,40.4961581 368.992308,41.7307612 368.992308,43.3461538 C368.992308,44.9153925 370.146142,46.5076842 372.453846,48.1230769 C373.330774,48.769234 374.126919,49.5999949 374.842308,50.6153846 C375.557696,51.6307743 375.915385,52.6923022 375.915385,53.8 C375.915385,56.9384772 373.861559,59.7884487 369.753846,62.35 C365.646133,64.9115513 361.192332,66.1923077 356.392308,66.1923077 C353.669217,66.1923077 352.192309,65.5461603 351.961538,64.2538462 Z" id="DuomlyPhotos" fill="#FFFFFF" fill-rule="nonzero"></path>
    </g>
</svg>